<svg width="135" height="135" viewBox="0 0 135 135" fill="none" xmlns="http://www.w3.org/2000/svg">
<path d="M53.1309 124.453H25.4453C19.6298 124.453 14.8984 119.722 14.8984 113.906V70.6641C14.8984 64.8485 19.6298 60.1172 25.4453 60.1172H101.383C107.198 60.1172 111.93 64.8485 111.93 70.6641V76.2012C111.93 79.1137 114.291 81.4746 117.203 81.4746C120.116 81.4746 122.477 79.1137 122.477 76.2012V70.6641C122.477 59.033 113.014 49.5703 101.383 49.5703H95.0449V30.9725C95.0449 13.8942 80.8509 0 63.4043 0C45.9577 0 31.7637 13.8942 31.7637 30.9725V49.5703H25.4453C13.8142 49.5703 4.35156 59.033 4.35156 70.6641V113.906C4.35156 125.537 13.8142 135 25.4453 135H53.1309C56.0434 135 58.4043 132.639 58.4043 129.727C58.4043 126.814 56.0434 124.453 53.1309 124.453ZM42.3106 30.9725C42.3106 19.7097 51.7732 10.5469 63.4043 10.5469C75.0354 10.5469 84.4981 19.7097 84.4981 30.9725V49.5703H42.3106V30.9725Z" fill="#131842"/>
<path d="M53.6582 96.5039C56.5706 96.5039 58.9316 94.1429 58.9316 91.2305C58.9316 88.318 56.5706 85.957 53.6582 85.957C50.7458 85.957 48.3848 88.318 48.3848 91.2305C48.3848 94.1429 50.7458 96.5039 53.6582 96.5039Z" fill="#131842"/>
<path d="M129.692 106.392C129.506 106.128 128.87 105.228 128.475 104.731C126.71 102.511 122.575 97.3099 116.823 92.7189C109.447 86.8322 101.857 83.8477 94.2636 83.8477C86.6701 83.8477 79.0801 86.8322 71.7049 92.7184C65.9516 97.31 61.8175 102.51 60.054 104.729C59.6577 105.227 59.0212 106.128 58.8356 106.392C58.2118 107.28 57.877 108.338 57.877 109.423C57.8769 110.508 58.2114 111.567 58.8351 112.455C59.021 112.719 59.6575 113.62 60.0525 114.116C61.8175 116.337 65.9516 121.537 71.7046 126.129C79.0801 132.015 86.6701 135 94.2636 135C101.857 135 109.447 132.015 116.823 126.129C122.575 121.538 126.71 116.338 128.476 114.116C128.871 113.619 129.506 112.719 129.692 112.456C130.316 111.568 130.65 110.509 130.65 109.424C130.65 108.339 130.316 107.28 129.692 106.392ZM94.2636 124.453C86.4312 124.453 78.2216 119.4 69.8365 109.424C78.221 99.4478 86.4307 94.3945 94.2636 94.3945C102.095 94.3945 110.306 99.4489 118.691 109.424C110.306 119.4 102.096 124.453 94.2636 124.453Z" fill="#E78369"/>
<path d="M33.8828 96.5039C36.7953 96.5039 39.1562 94.1429 39.1562 91.2305C39.1562 88.318 36.7953 85.957 33.8828 85.957C30.9704 85.957 28.6094 88.318 28.6094 91.2305C28.6094 94.1429 30.9704 96.5039 33.8828 96.5039Z" fill="#131842"/>
<path d="M94.5273 119.443C100.061 119.443 104.547 114.957 104.547 109.424C104.547 103.89 100.061 99.4043 94.5273 99.4043C88.9937 99.4043 84.5078 103.89 84.5078 109.424C84.5078 114.957 88.9937 119.443 94.5273 119.443Z" fill="#E78369"/>
</svg>